# xmcd
#
# Track frame offsets:
#	150
#	15245
#	34050
#	57197
#	74590
#	88254
#	98920
#	117705
#	133297
#	148335
#	169075
#	186175
#	202042
#	221440
#	234800
#	252415
#	266572
#	284717
#	301880
#	317435
#
# Disc length: 4396 seconds
#
# Revision: 0
# Processed by: cddbd v1.4PL0 Copyright (c) Steve Scherf et al.
# Submitted via: dBpowerAMP V4.0
#
DISCID=34112a14
DTITLE=Pistol Pete - Pistol Pete
DYEAR=1997
DGENRE=Blues
TTITLE0=The Theme
TTITLE1=Edge
TTITLE2=Wild Horses
TTITLE3=Cherry Pie
TTITLE4=Black Cat
TTITLE5=Ain't Looking For No Commitment
TTITLE6=Same Old Song
TTITLE7=1962
TTITLE8=King Of The Gypsies
TTITLE9=Deep Throat
TTITLE10=Rasta Man
TTITLE11=Crazy For You
TTITLE12=Forever In Your Heart
TTITLE13=Cool
TTITLE14=Aphrodisiac
TTITLE15=Savannah
TTITLE16=World Keeps On Turning
TTITLE17=Can't Stand It
TTITLE18=Garden Of Eden
TTITLE19=Havin' Fun
EXTD=Pistol Pete from Rockford, IL, best blues guitarist/singer/performer\nMy name is Todd Keller and I used to work at a club he would play at.
EXTT0=
EXTT1=
EXTT2=
EXTT3=
EXTT4=
EXTT5=
EXTT6=
EXTT7=
EXTT8=
EXTT9=
EXTT10=
EXTT11=
EXTT12=
EXTT13=
EXTT14=
EXTT15=
EXTT16=
EXTT17=
EXTT18=
EXTT19=
PLAYORDER=
